<svg xmlns="http://www.w3.org/2000/svg" viewBox="0 0 64 64" fill="none">
  <!-- dienblad -->
  <ellipse cx="32" cy="53" rx="27" ry="6.5" fill="#3F444B"/>
  <ellipse cx="32" cy="50" rx="27" ry="6.5" fill="#5B626B"/>

  <!-- beker (rechts) -->
  <path d="M45 26l1.5 20a2 2 0 0 0 2 1.8h3a2 2 0 0 0 2-1.8L57 26z" fill="#DA291C"/>
  <rect x="44" y="22" width="14" height="5" rx="2" fill="#EDEDED"/>
  <line x1="55" y1="23" x2="57" y2="12" stroke="#EDEDED" stroke-width="2.5" stroke-linecap="round"/>
  <rect x="46" y="33" width="10" height="6" fill="#ffffff" opacity="0.85"/>

  <!-- friet (midden) -->
  <g fill="#FFC72C">
    <rect x="27" y="26" width="3" height="14" rx="1.5"/>
    <rect x="31" y="22" width="3" height="18" rx="1.5"/>
    <rect x="35" y="24" width="3" height="16" rx="1.5"/>
    <rect x="39" y="28" width="3" height="12" rx="1.5"/>
  </g>
  <path d="M26 34h16l-1.6 12a2 2 0 0 1-2 1.8H29.6a2 2 0 0 1-2-1.8z" fill="#DA291C"/>
  <rect x="28" y="38" width="12" height="5" fill="#ffffff" opacity="0.85"/>

  <!-- burger (links) -->
  <path d="M8 38q9-11 18 0z" fill="#E8B06A"/>
  <ellipse cx="14" cy="35" rx="1" ry="0.7" fill="#ffffff"/>
  <ellipse cx="18" cy="33.6" rx="1" ry="0.7" fill="#ffffff"/>
  <ellipse cx="21" cy="35" rx="1" ry="0.7" fill="#ffffff"/>
  <rect x="7" y="38" width="20" height="2.5" fill="#3FA34D"/>
  <rect x="7.5" y="40.3" width="19" height="3" fill="#7A3B1E"/>
  <path d="M7 43.5h20v1.5a3 3 0 0 1-3 3H10a3 3 0 0 1-3-3z" fill="#E8B06A"/>
</svg>
